# File created by Blade
# Date/Time:  Tue Jan 27 19:23:16 2015
# Frame Rate: 120.000 fps
#------------------------------------------------------
:FULLY-SPECIFIED
:DEGREES
3421
root 3.055569 32.264768 0.783056 -3.254738 -3.165579 0.139424
Spine 0.565934 -5.426501 1.482988
Head 8.728063 -29.929901 -3.371825
LeftShoulder -5.988169 -4.496921 24.590914
LeftArm -4.544200 41.344166 -103.331601
LeftForeArm 5.382123 -0.000000 16.188614
LeftHand 9.587382 -0.000000 -5.414893
LeftHandThumb1 -26.253704 0.000000 33.147579
RightShoulder -19.395769 -3.802788 -39.806365
RightArm 97.307771 78.938037 143.334311
RightForeArm 21.778226 0.000000 94.759454
RightHand 29.826243 -0.000000 -13.215405
RightHandThumb1 -24.326973 -0.000000 -32.862282
LeftUpLeg 11.854845 6.190090 2.092054
LeftLeg 1.035337 -0.000000 -0.000000
LeftFoot -18.086468 12.000248 -24.413772
LeftToeBase 16.863556 -0.000000 -0.000000
RightUpLeg 9.172786 -4.710287 3.202208
RightLeg 0.400198 -0.000000 -0.000000
RightFoot -12.880567 -14.110394 13.060291
RightToeBase 11.245140 -0.000000 -0.000000
3422
root 3.056574 32.265717 0.791267 -3.260399 -3.189476 0.136462
Spine 0.478646 -5.458997 1.512155
Head 9.054541 -29.823821 -3.590710
LeftShoulder -5.906399 -4.553019 24.680184
LeftArm -4.659016 41.434033 -103.465563
LeftForeArm 5.330600 -0.000000 16.149155
LeftHand 9.623688 -0.000000 -5.492907
LeftHandThumb1 -26.253704 0.000000 33.147579
RightShoulder -19.405928 -3.364107 -39.873081
RightArm 105.817075 78.049993 152.334915
RightForeArm 22.039152 0.000000 94.877806
RightHand 30.020393 -0.000000 -13.280025
RightHandThumb1 -24.326973 -0.000000 -32.862282
LeftUpLeg 11.895195 6.222533 2.096329
LeftLeg 1.004497 -0.000000 -0.000000
LeftFoot -18.081606 11.997842 -24.436280
LeftToeBase 16.926203 -0.000000 -0.000000
RightUpLeg 9.198303 -4.701592 3.200792
RightLeg 0.384015 -0.000000 -0.000000
RightFoot -12.858707 -14.107404 13.031193
RightToeBase 11.246498 -0.000000 -0.000000
3423
root 3.057010 32.267654 0.798846 -3.265129 -3.209854 0.131169
Spine 0.406681 -5.459363 1.539898
Head 9.400546 -29.677674 -3.797088
LeftShoulder -5.819388 -4.564085 24.765268
LeftArm -4.676771 41.576079 -103.538666
LeftForeArm 5.210959 0.000000 16.080075
LeftHand 9.635998 -0.000000 -5.621594
LeftHandThumb1 -26.253704 0.000000 33.147579
RightShoulder -19.507232 -3.055992 -39.885276
RightArm 112.680860 76.839719 159.694231
RightForeArm 22.314153 -0.000000 95.013581
RightHand 30.087977 -0.000000 -13.441330
RightHandThumb1 -24.326973 -0.000000 -32.862282
LeftUpLeg 11.950621 6.136400 2.085411
LeftLeg 0.935857 -0.000000 -0.000000
LeftFoot -18.080542 12.074213 -24.488035
LeftToeBase 16.934049 -0.000000 -0.000000
RightUpLeg 9.219281 -4.693704 3.200129
RightLeg 0.374181 -0.000000 -0.000000
RightFoot -12.837985 -14.084086 13.049426
RightToeBase 11.274365 -0.000000 -0.000000
3424
root 3.055041 32.268914 0.805350 -3.261462 -3.238182 0.118033
Spine 0.300013 -5.457259 1.551533
Head 9.787672 -29.667973 -4.007547
LeftShoulder -5.667552 -4.581218 24.872744
LeftArm -4.740529 41.642365 -103.645373
LeftForeArm 5.100142 -0.000000 16.033149
LeftHand 9.610286 -0.000000 -5.701322
LeftHandThumb1 -26.253704 0.000000 33.147579
RightShoulder -19.540892 -2.675575 -39.871491
RightArm 118.194301 75.618712 165.663518
RightForeArm 22.494541 -0.000000 95.155641
RightHand 30.224558 -0.000000 -13.417833
RightHandThumb1 -24.326973 -0.000000 -32.862282
LeftUpLeg 11.979758 6.112544 2.091946
LeftLeg 0.904969 -0.000000 -0.000000
LeftFoot -18.087326 12.132385 -24.493223
LeftToeBase 16.840003 -0.000000 -0.000000
RightUpLeg 9.225033 -4.663701 3.215998
RightLeg 0.375159 -0.000000 -0.000000
RightFoot -12.838140 -14.082561 13.095383
RightToeBase 11.298718 -0.000000 -0.000000
3425
root 3.053213 32.270580 0.812162 -3.261147 -3.262829 0.097993
Spine 0.205519 -5.454525 1.576157
Head 10.177817 -29.628830 -4.223680
LeftShoulder -5.520829 -4.635765 24.969452
LeftArm -4.837530 41.705827 -103.756105
LeftForeArm 5.101902 -0.000000 15.988829
LeftHand 9.570144 0.000000 -5.832570
LeftHandThumb1 -26.253704 0.000000 33.147579
RightShoulder -19.590045 -2.305400 -39.870246
RightArm 122.522655 74.383051 170.470100
RightForeArm 22.771078 -0.000000 95.284978
RightHand 30.388437 -0.000000 -13.434299
RightHandThumb1 -24.326973 -0.000000 -32.862282
LeftUpLeg 11.979983 6.221906 2.129959
LeftLeg 0.940388 -0.000000 -0.000000
LeftFoot -18.068976 12.100362 -24.408127
LeftToeBase 16.886676 -0.000000 -0.000000
RightUpLeg 9.237201 -4.644943 3.237406
RightLeg 0.371269 -0.000000 -0.000000
RightFoot -12.811527 -14.070230 13.089808
RightToeBase 11.337235 -0.000000 -0.000000
3426
root 3.052761 32.271726 0.818709 -3.251909 -3.284749 0.089860
Spine 0.092685 -5.453654 1.587731
Head 10.586870 -29.556930 -4.458731
LeftShoulder -5.357501 -4.713933 25.080736
LeftArm -4.982029 41.736801 -103.905767
LeftForeArm 5.089629 -0.000000 15.953889
LeftHand 9.504382 -0.000000 -5.937759
LeftHandThumb1 -26.253704 0.000000 33.147579
RightShoulder -19.651936 -2.221210 -39.764258
RightArm 125.882692 72.938700 174.282511
RightForeArm 23.112370 -0.000000 95.411541
RightHand 30.197937 0.000000 -14.075894
RightHandThumb1 -24.326973 -0.000000 -32.862282
LeftUpLeg 11.990942 6.238410 2.136354
LeftLeg 0.930298 -0.000000 -0.000000
LeftFoot -18.056839 12.128837 -24.377236
LeftToeBase 16.823068 -0.000000 -0.000000
RightUpLeg 9.239878 -4.619467 3.245194
RightLeg 0.366964 -0.000000 -0.000000
RightFoot -12.790326 -14.078471 13.109468
RightToeBase 11.293263 -0.000000 -0.000000
3427
root 3.052258 32.273030 0.825775 -3.257768 -3.315191 0.081144
Spine -0.005113 -5.453168 1.603989
Head 11.003906 -29.538392 -4.742424
LeftShoulder -5.214619 -4.786598 25.191605
LeftArm -5.114767 41.815891 -104.057408
LeftForeArm 4.989981 -0.000000 15.890617
LeftHand 9.495339 -0.000000 -6.017634
LeftHandThumb1 -26.253704 0.000000 33.147579
RightShoulder -19.701434 -1.713430 -39.848642
RightArm 128.334934 72.106332 177.236450
RightForeArm 23.552384 -0.000000 95.511042
RightHand 30.409755 -0.000000 -14.175806
RightHandThumb1 -24.326973 -0.000000 -32.862282
LeftUpLeg 12.025925 6.242059 2.143211
LeftLeg 0.911005 -0.000000 -0.000000
LeftFoot -18.075246 12.150609 -24.408730
LeftToeBase 16.927294 -0.000000 -0.000000
RightUpLeg 9.257373 -4.601948 3.250651
RightLeg 0.366409 -0.000000 -0.000000
RightFoot -12.786025 -14.046595 13.125409
RightToeBase 11.385855 -0.000000 -0.000000
3428
root 3.051703 32.274220 0.833626 -3.258968 -3.350169 0.070740
Spine -0.106600 -5.450733 1.622347
Head 11.437816 -29.461028 -5.009900
LeftShoulder -5.093853 -4.772913 25.300912
LeftArm -5.138843 41.990375 -104.137659
LeftForeArm 4.769692 0.000000 15.825094
LeftHand 9.523592 -0.000000 -5.989395
LeftHandThumb1 -26.253704 0.000000 33.147579
RightShoulder -19.763379 -1.403531 -39.871114
RightArm 130.209711 71.246380 179.585727
RightForeArm 24.003312 -0.000000 95.551274
RightHand 30.483222 -0.000000 -14.484474
RightHandThumb1 -24.326973 -0.000000 -32.862282
LeftUpLeg 12.046183 6.272521 2.151485
LeftLeg 0.921902 -0.000000 -0.000000
LeftFoot -18.027302 12.186094 -24.260869
LeftToeBase 16.757999 -0.000000 -0.000000
RightUpLeg 9.272249 -4.589328 3.257336
RightLeg 0.358300 -0.000000 -0.000000
RightFoot -12.756653 -14.031393 13.126792
RightToeBase 11.362803 -0.000000 -0.000000
3429
root 3.049233 32.275642 0.840276 -3.253157 -3.371523 0.045726
Spine -0.201276 -5.456355 1.644972
Head 11.825892 -29.404953 -5.253980
LeftShoulder -4.991147 -4.854097 25.399564
LeftArm -5.265497 42.064673 -104.249782
LeftForeArm 4.749977 -0.000000 15.790953
LeftHand 9.537996 -0.000000 -6.133810
LeftHandThumb1 -26.253704 0.000000 33.147579
RightShoulder -19.861230 -1.134121 -39.847064
RightArm 131.524246 70.564078 181.324310
RightForeArm 24.598859 -0.000000 95.572986
RightHand 30.637565 -0.000000 -14.526885
RightHandThumb1 -24.326973 -0.000000 -32.862282
LeftUpLeg 12.060054 6.286387 2.181185
LeftLeg 0.905146 -0.000000 -0.000000
LeftFoot -18.065217 12.207881 -24.349425
LeftToeBase 16.861490 -0.000000 -0.000000
RightUpLeg 9.276119 -4.598103 3.279155
RightLeg 0.362122 -0.000000 -0.000000
RightFoot -12.734888 -13.987697 13.141181
RightToeBase 11.357859 -0.000000 -0.000000
3430
root 3.047786 32.277076 0.847248 -3.258983 -3.393411 0.038182
Spine -0.285347 -5.447702 1.640052
Head 12.227904 -29.380867 -5.504506
LeftShoulder -4.857879 -4.970921 25.526299
LeftArm -5.409481 42.123861 -104.400956
LeftForeArm 4.738098 -0.000000 15.707697
LeftHand 9.616963 -0.000000 -6.300129
LeftHandThumb1 -26.253704 0.000000 33.147579
RightShoulder -19.969024 -0.957761 -39.780126
RightArm 132.422615 70.047326 182.602704
RightForeArm 25.268943 -0.000000 95.556260
RightHand 30.810035 0.000000 -14.623735
RightHandThumb1 -24.326973 -0.000000 -32.862282
LeftUpLeg 12.074142 6.356669 2.202938
LeftLeg 0.924707 -0.000000 -0.000000
LeftFoot -18.055304 12.167985 -24.330807
LeftToeBase 16.892439 -0.000000 -0.000000
RightUpLeg 9.296980 -4.571870 3.287393
RightLeg 0.354155 -0.000000 -0.000000
RightFoot -12.721820 -13.990154 13.147499
RightToeBase 11.399331 -0.000000 -0.000000
3431
root 3.046697 32.278209 0.857495 -3.267935 -3.429641 0.036394
Spine -0.376155 -5.469863 1.634798
Head 12.631583 -29.319966 -5.783183
LeftShoulder -4.791730 -5.041327 25.644570
LeftArm -5.577190 42.308907 -104.548416
LeftForeArm 4.625361 0.000000 15.690813
LeftHand 9.656461 -0.000000 -6.335280
LeftHandThumb1 -26.253704 0.000000 33.147579
RightShoulder -20.060412 -0.792925 -39.692784
RightArm 132.941765 69.716480 183.462503
RightForeArm 25.989473 -0.000000 95.529413
RightHand 30.858681 -0.000000 -14.567662
RightHandThumb1 -24.326973 -0.000000 -32.862282
LeftUpLeg 12.128860 6.381697 2.209010
LeftLeg 0.882815 -0.000000 -0.000000
LeftFoot -18.045864 12.179456 -24.350458
LeftToeBase 16.901487 -0.000000 -0.000000
RightUpLeg 9.329540 -4.552294 3.287365
RightLeg 0.337209 -0.000000 -0.000000
RightFoot -12.690299 -13.981080 13.139860
RightToeBase 11.380122 -0.000000 -0.000000
3432
root 3.045394 32.279217 0.868841 -3.288608 -3.438005 0.027837
Spine -0.454232 -5.504351 1.635617
Head 13.029047 -29.291995 -6.079939
LeftShoulder -4.721853 -5.032544 25.773987
LeftArm -5.584224 42.459321 -104.615828
LeftForeArm 4.581524 0.000000 15.608689
LeftHand 9.624049 -0.000000 -6.417623
LeftHandThumb1 -26.253704 0.000000 33.147579
RightShoulder -20.177426 -0.646018 -39.607139
RightArm 133.096851 69.591942 183.924745
RightForeArm 26.427476 -0.000000 95.537509
RightHand 31.109365 -0.000000 -14.487412
RightHandThumb1 -24.326973 -0.000000 -32.862282
LeftUpLeg 12.184954 6.369957 2.217065
LeftLeg 0.865433 -0.000000 -0.000000
LeftFoot -17.978548 12.227797 -24.204458
LeftToeBase 16.672749 -0.000000 -0.000000
RightUpLeg 9.381437 -4.567690 3.289552
RightLeg 0.314248 -0.000000 -0.000000
RightFoot -12.669919 -13.955308 13.134320
RightToeBase 11.369803 -0.000000 -0.000000
